<?xml version="1.0" encoding="utf-8" standalone="no"?>
<!DOCTYPE svg PUBLIC "-//W3C//DTD SVG 1.1//EN"
  "http://www.w3.org/Graphics/SVG/1.1/DTD/svg11.dtd">
<!-- Created with matplotlib (https://matplotlib.org/) -->
<svg height="288pt" version="1.1" viewBox="0 0 432 288" width="432pt" xmlns="http://www.w3.org/2000/svg" xmlns:xlink="http://www.w3.org/1999/xlink">
 <defs>
  <style type="text/css">
*{stroke-linecap:butt;stroke-linejoin:round;white-space:pre;}
  </style>
 </defs>
 <g id="figure_1">
  <g id="patch_1">
   <path d="M 0 288 
L 432 288 
L 432 0 
L 0 0 
z
" style="fill:#ffffff;"/>
  </g>
  <g id="axes_1">
   <g id="patch_2">
    <path d="M 54 252 
L 388.8 252 
L 388.8 34.56 
L 54 34.56 
z
" style="fill:#ffffff;"/>
   </g>
   <g id="matplotlib.axis_1">
    <g id="xtick_1">
     <g id="line2d_1">
      <defs>
       <path d="M 0 0 
L 0 3.5 
" id="m08d0a4735c" style="stroke:#000000;stroke-width:0.8;"/>
      </defs>
      <g>
       <use style="stroke:#000000;stroke-width:0.8;" x="69.218182" xlink:href="#m08d0a4735c" y="252"/>
      </g>
     </g>
     <g id="text_1">
      <!-- $0$ -->
      <defs>
       <path d="M 42 31.84375 
C 42 37.96875 41.90625 48.421875 37.703125 56.453125 
C 34 63.484375 28.09375 66 22.90625 66 
C 18.09375 66 12 63.78125 8.203125 56.5625 
C 4.203125 49.015625 3.796875 39.671875 3.796875 31.84375 
C 3.796875 26.109375 3.90625 17.375 7 9.734375 
C 11.296875 -0.609375 19 -2 22.90625 -2 
C 27.5 -2 34.5 -0.109375 38.59375 9.4375 
C 41.59375 16.375 42 24.5 42 31.84375 
z
M 22.90625 -0.40625 
C 16.5 -0.40625 12.703125 5.125 11.296875 12.75 
C 10.203125 18.6875 10.203125 27.328125 10.203125 32.953125 
C 10.203125 40.6875 10.203125 47.109375 11.5 53.234375 
C 13.40625 61.78125 19 64.390625 22.90625 64.390625 
C 27 64.390625 32.296875 61.671875 34.203125 53.4375 
C 35.5 47.71875 35.59375 40.984375 35.59375 32.953125 
C 35.59375 26.421875 35.59375 18.375 34.40625 12.453125 
C 32.296875 1.5 26.40625 -0.40625 22.90625 -0.40625 
z
" id="CMR17-48"/>
      </defs>
      <g transform="translate(66.727514 265.861476)scale(0.1 -0.1)">
       <use transform="scale(0.996264)" xlink:href="#CMR17-48"/>
      </g>
     </g>
    </g>
    <g id="xtick_2">
     <g id="line2d_2">
      <g>
       <use style="stroke:#000000;stroke-width:0.8;" x="125.945381" xlink:href="#m08d0a4735c" y="252"/>
      </g>
     </g>
     <g id="text_2">
      <!-- $5$ -->
      <defs>
       <path d="M 11.40625 58.59375 
C 12.40625 58.1875 16.5 56.890625 20.703125 56.890625 
C 30 56.890625 35.09375 61.890625 38 64.6875 
C 38 65.484375 38 66 37.40625 66 
C 37.296875 66 37.09375 66 36.296875 65.59375 
C 32.796875 64.09375 28.703125 63 23.703125 63 
C 20.703125 63 16.203125 63.359375 11.296875 65.484375 
C 10.203125 66 10 66 9.90625 66 
C 9.40625 66 9.296875 65.890625 9.296875 63.90625 
L 9.296875 34.859375 
C 9.296875 33.015625 9.296875 32.5 10.296875 32.5 
C 10.796875 32.5 11 32.703125 11.5 33.421875 
C 14.703125 38.046875 19.09375 40 24.09375 40 
C 27.59375 40 35.09375 37.734375 35.09375 20.203125 
C 35.09375 16.984375 35.09375 11.1875 32.09375 6.59375 
C 29.59375 2.484375 25.703125 0.390625 21.40625 0.390625 
C 14.796875 0.390625 8.09375 4.984375 6.296875 12.6875 
C 6.703125 12.59375 7.5 12.390625 7.90625 12.390625 
C 9.203125 12.390625 11.703125 13.09375 11.703125 16.1875 
C 11.703125 18.890625 9.796875 20 7.90625 20 
C 5.59375 20 4.09375 18.59375 4.09375 15.796875 
C 4.09375 7.09375 11 -2 21.59375 -2 
C 31.90625 -2 41.703125 6.890625 41.703125 19.796875 
C 41.703125 32.09375 33.90625 41.59375 24.203125 41.59375 
C 19.09375 41.59375 14.796875 39.6875 11.40625 36 
z
" id="CMR17-53"/>
      </defs>
      <g transform="translate(123.454713 265.861476)scale(0.1 -0.1)">
       <use transform="scale(0.996264)" xlink:href="#CMR17-53"/>
      </g>
     </g>
    </g>
    <g id="xtick_3">
     <g id="line2d_3">
      <g>
       <use style="stroke:#000000;stroke-width:0.8;" x="182.67258" xlink:href="#m08d0a4735c" y="252"/>
      </g>
     </g>
     <g id="text_3">
      <!-- $10$ -->
      <defs>
       <path d="M 26.59375 63.796875 
C 26.59375 65.890625 26.5 66 25.09375 66 
C 21.203125 61.359375 15.296875 59.890625 9.703125 59.6875 
C 9.40625 59.6875 8.90625 59.6875 8.796875 59.5 
C 8.703125 59.296875 8.703125 59.09375 8.703125 57 
C 11.796875 57 17 57.59375 21 59.984375 
L 21 7.296875 
C 21 3.796875 20.796875 2.59375 12.203125 2.59375 
L 9.203125 2.59375 
L 9.203125 0 
C 14 0.09375 19 0.1875 23.796875 0.1875 
C 28.59375 0.1875 33.59375 0.09375 38.40625 0 
L 38.40625 2.59375 
L 35.40625 2.59375 
C 26.796875 2.59375 26.59375 3.6875 26.59375 7.296875 
z
" id="CMR17-49"/>
      </defs>
      <g transform="translate(177.691245 265.861476)scale(0.1 -0.1)">
       <use transform="scale(0.996264)" xlink:href="#CMR17-49"/>
       <use transform="translate(45.690477 0)scale(0.996264)" xlink:href="#CMR17-48"/>
      </g>
     </g>
    </g>
    <g id="xtick_4">
     <g id="line2d_4">
      <g>
       <use style="stroke:#000000;stroke-width:0.8;" x="239.399779" xlink:href="#m08d0a4735c" y="252"/>
      </g>
     </g>
     <g id="text_4">
      <!-- $15$ -->
      <g transform="translate(234.418444 265.861476)scale(0.1 -0.1)">
       <use transform="scale(0.996264)" xlink:href="#CMR17-49"/>
       <use transform="translate(45.690477 0)scale(0.996264)" xlink:href="#CMR17-53"/>
      </g>
     </g>
    </g>
    <g id="xtick_5">
     <g id="line2d_5">
      <g>
       <use style="stroke:#000000;stroke-width:0.8;" x="296.126978" xlink:href="#m08d0a4735c" y="252"/>
      </g>
     </g>
     <g id="text_5">
      <!-- $20$ -->
      <defs>
       <path d="M 41.703125 15.46875 
L 39.90625 15.46875 
C 38.90625 8.390625 38.09375 7.1875 37.703125 6.59375 
C 37.203125 5.796875 30 5.796875 28.59375 5.796875 
L 9.40625 5.796875 
C 13 9.6875 20 16.765625 28.5 24.9375 
C 34.59375 30.71875 41.703125 37.5 41.703125 47.390625 
C 41.703125 59.1875 32.296875 66 21.796875 66 
C 10.796875 66 4.09375 56.296875 4.09375 47.296875 
C 4.09375 43.390625 7 42.890625 8.203125 42.890625 
C 9.203125 42.890625 12.203125 43.484375 12.203125 46.984375 
C 12.203125 50.09375 9.59375 51 8.203125 51 
C 7.59375 51 7 50.890625 6.59375 50.6875 
C 8.5 59.1875 14.296875 63.390625 20.40625 63.390625 
C 29.09375 63.390625 34.796875 56.5 34.796875 47.390625 
C 34.796875 38.703125 29.703125 31.21875 24 24.734375 
L 4.09375 2.296875 
L 4.09375 0 
L 39.296875 0 
z
" id="CMR17-50"/>
      </defs>
      <g transform="translate(291.145642 265.861476)scale(0.1 -0.1)">
       <use transform="scale(0.996264)" xlink:href="#CMR17-50"/>
       <use transform="translate(45.690477 0)scale(0.996264)" xlink:href="#CMR17-48"/>
      </g>
     </g>
    </g>
    <g id="xtick_6">
     <g id="line2d_6">
      <g>
       <use style="stroke:#000000;stroke-width:0.8;" x="352.854177" xlink:href="#m08d0a4735c" y="252"/>
      </g>
     </g>
     <g id="text_6">
      <!-- $25$ -->
      <g transform="translate(347.872841 265.861476)scale(0.1 -0.1)">
       <use transform="scale(0.996264)" xlink:href="#CMR17-50"/>
       <use transform="translate(45.690477 0)scale(0.996264)" xlink:href="#CMR17-53"/>
      </g>
     </g>
    </g>
    <g id="text_7">
     <!-- k -->
     <defs>
      <path d="M 4.5 68.875 
L 4.5 66.625 
L 5.703125 66.625 
C 9.203125 66.625 10.40625 65.078125 10.40625 61.609375 
L 10.40625 5.796875 
C 10.40625 2.796875 9.09375 2.1875 4.5 2.1875 
L 4.5 0 
L 20.203125 0 
L 20.203125 2.1875 
L 18.59375 2.1875 
C 16.5 2.1875 14.296875 2.5 14.296875 5.5 
L 14.296875 16.5 
C 14.296875 18.890625 18.203125 21.390625 20.09375 23.296875 
L 21.703125 24.796875 
C 25 19.09375 28.90625 13.796875 32.5 8.09375 
C 33 7.296875 34.203125 5.6875 34.203125 4.1875 
C 34.203125 3.59375 34 3.09375 33.5 2.6875 
L 32.90625 2.390625 
C 32.5 2.296875 32.203125 2.1875 31.796875 2.1875 
L 31.796875 0 
L 45.703125 0 
L 45.703125 2.1875 
C 40.203125 2.1875 38.90625 5.59375 36.796875 8.796875 
C 33.09375 14.390625 29.5 19.890625 25.90625 25.5 
C 25.59375 26 24.796875 26.890625 24.796875 27.5 
C 25 28.296875 27.5 30.390625 28.796875 31.59375 
C 32.90625 35.5 37.59375 40.6875 43.703125 40.796875 
L 43.703125 43 
L 30.40625 43 
L 30.40625 40.796875 
L 31.296875 40.5 
C 32 40 32.296875 39.390625 32.296875 38.6875 
C 32.296875 35.890625 28.5 33.09375 26.5 31.296875 
C 22.5 27.390625 18.40625 23.59375 14.40625 19.6875 
L 14.40625 70 
z
" id="Computer_Modern_Roman-107"/>
     </defs>
     <g transform="translate(218.771612 278.65966)scale(0.1 -0.1)">
      <use transform="scale(0.356961)" xlink:href="#Computer_Modern_Roman-107"/>
     </g>
    </g>
   </g>
   <g id="matplotlib.axis_2">
    <g id="ytick_1">
     <g id="line2d_7">
      <defs>
       <path d="M 0 0 
L -3.5 0 
" id="mdb52d29bb7" style="stroke:#000000;stroke-width:0.8;"/>
      </defs>
      <g>
       <use style="stroke:#000000;stroke-width:0.8;" x="54" xlink:href="#mdb52d29bb7" y="242.116364"/>
      </g>
     </g>
     <g id="text_8">
      <!-- $0.0$ -->
      <defs>
       <path d="M 18.40625 4.796875 
C 18.40625 7.6875 16 9.6875 13.59375 9.6875 
C 10.703125 9.6875 8.703125 7.296875 8.703125 4.890625 
C 8.703125 2 11.09375 0 13.5 0 
C 16.40625 0 18.40625 2.390625 18.40625 4.796875 
z
" id="CMMI12-58"/>
      </defs>
      <g transform="translate(34.269921 245.547102)scale(0.1 -0.1)">
       <use transform="scale(0.996264)" xlink:href="#CMR17-48"/>
       <use transform="translate(45.690477 0)scale(0.996264)" xlink:href="#CMMI12-58"/>
       <use transform="translate(72.787654 0)scale(0.996264)" xlink:href="#CMR17-48"/>
      </g>
     </g>
    </g>
    <g id="ytick_2">
     <g id="line2d_8">
      <g>
       <use style="stroke:#000000;stroke-width:0.8;" x="54" xlink:href="#mdb52d29bb7" y="206.845723"/>
      </g>
     </g>
     <g id="text_9">
      <!-- $0.2$ -->
      <g transform="translate(34.269921 210.276461)scale(0.1 -0.1)">
       <use transform="scale(0.996264)" xlink:href="#CMR17-48"/>
       <use transform="translate(45.690477 0)scale(0.996264)" xlink:href="#CMMI12-58"/>
       <use transform="translate(72.787654 0)scale(0.996264)" xlink:href="#CMR17-50"/>
      </g>
     </g>
    </g>
    <g id="ytick_3">
     <g id="line2d_9">
      <g>
       <use style="stroke:#000000;stroke-width:0.8;" x="54" xlink:href="#mdb52d29bb7" y="171.575082"/>
      </g>
     </g>
     <g id="text_10">
      <!-- $0.4$ -->
      <defs>
       <path d="M 33.59375 64.796875 
C 33.59375 66.890625 33.5 67 31.703125 67 
L 2 19.59375 
L 2 17 
L 27.796875 17 
L 27.796875 7.1875 
C 27.796875 3.59375 27.59375 2.59375 20.59375 2.59375 
L 18.703125 2.59375 
L 18.703125 0 
C 21.90625 0.1875 27.296875 0.1875 30.703125 0.1875 
C 34.09375 0.1875 39.5 0.1875 42.703125 0 
L 42.703125 2.59375 
L 40.796875 2.59375 
C 33.796875 2.59375 33.59375 3.59375 33.59375 7.1875 
L 33.59375 17 
L 43.796875 17 
L 43.796875 19.59375 
L 33.59375 19.59375 
z
M 28.09375 58.171875 
L 28.09375 19.59375 
L 4 19.59375 
z
" id="CMR17-52"/>
      </defs>
      <g transform="translate(34.269921 175.00582)scale(0.1 -0.1)">
       <use transform="scale(0.996264)" xlink:href="#CMR17-48"/>
       <use transform="translate(45.690477 0)scale(0.996264)" xlink:href="#CMMI12-58"/>
       <use transform="translate(72.787654 0)scale(0.996264)" xlink:href="#CMR17-52"/>
      </g>
     </g>
    </g>
    <g id="ytick_4">
     <g id="line2d_10">
      <g>
       <use style="stroke:#000000;stroke-width:0.8;" x="54" xlink:href="#mdb52d29bb7" y="136.304441"/>
      </g>
     </g>
     <g id="text_11">
      <!-- $0.6$ -->
      <defs>
       <path d="M 10.59375 34.34375 
C 10.59375 58 21.796875 63.6875 28.296875 63.6875 
C 30.40625 63.6875 35.5 63.265625 37.5 59.09375 
C 35.90625 59.09375 32.90625 59.09375 32.90625 55.59375 
C 32.90625 52.890625 35.09375 52 36.5 52 
C 37.40625 52 40.09375 52.390625 40.09375 55.796875 
C 40.09375 62.296875 35.09375 66 28.203125 66 
C 16.296875 66 3.796875 53.296875 3.796875 31.421875 
C 3.796875 4.015625 15.09375 -2 23.09375 -2 
C 32.796875 -2 42 6.734375 42 20.234375 
C 42 32.828125 33.90625 42 23.703125 42 
C 17.59375 42 13.09375 37.96875 10.59375 30.921875 
z
M 23.09375 0.390625 
C 10.796875 0.390625 10.796875 18.9375 10.796875 22.65625 
C 10.796875 29.90625 14.203125 40.390625 23.5 40.390625 
C 25.203125 40.390625 30.09375 40.390625 33.40625 33.4375 
C 35.203125 29.515625 35.203125 25.375 35.203125 20.34375 
C 35.203125 14.90625 35.203125 10.875 33.09375 6.84375 
C 30.90625 2.703125 27.703125 0.390625 23.09375 0.390625 
z
" id="CMR17-54"/>
      </defs>
      <g transform="translate(34.269921 139.73518)scale(0.1 -0.1)">
       <use transform="scale(0.996264)" xlink:href="#CMR17-48"/>
       <use transform="translate(45.690477 0)scale(0.996264)" xlink:href="#CMMI12-58"/>
       <use transform="translate(72.787654 0)scale(0.996264)" xlink:href="#CMR17-54"/>
      </g>
     </g>
    </g>
    <g id="ytick_5">
     <g id="line2d_11">
      <g>
       <use style="stroke:#000000;stroke-width:0.8;" x="54" xlink:href="#mdb52d29bb7" y="101.033801"/>
      </g>
     </g>
     <g id="text_12">
      <!-- $0.8$ -->
      <defs>
       <path d="M 27.203125 35.765625 
C 33.5 38.96875 39.90625 43.796875 39.90625 51.53125 
C 39.90625 60.6875 31.09375 66 23 66 
C 13.90625 66 5.90625 59.375 5.90625 50.234375 
C 5.90625 47.71875 6.5 43.390625 10.40625 39.578125 
C 11.40625 38.578125 15.59375 35.5625 18.296875 33.65625 
C 13.796875 31.34375 3.296875 25.8125 3.296875 14.765625 
C 3.296875 4.40625 13.09375 -2 22.796875 -2 
C 33.5 -2 42.5 5.71875 42.5 15.96875 
C 42.5 25.109375 36.40625 29.328125 32.40625 32.046875 
z
M 14.09375 44.609375 
C 13.296875 45.109375 9.296875 48.21875 9.296875 52.9375 
C 9.296875 59.078125 15.59375 63.6875 22.796875 63.6875 
C 30.703125 63.6875 36.5 58.0625 36.5 51.53125 
C 36.5 42.1875 26.09375 36.859375 25.59375 36.859375 
C 25.5 36.859375 25.40625 36.859375 24.59375 37.46875 
z
M 32.5 24 
C 34 22.90625 38.796875 19.578125 38.796875 13.453125 
C 38.796875 6.015625 31.40625 0.390625 23 0.390625 
C 13.90625 0.390625 7 6.921875 7 14.859375 
C 7 22.796875 13.09375 29.4375 20 32.546875 
z
" id="CMR17-56"/>
      </defs>
      <g transform="translate(34.269921 104.464539)scale(0.1 -0.1)">
       <use transform="scale(0.996264)" xlink:href="#CMR17-48"/>
       <use transform="translate(45.690477 0)scale(0.996264)" xlink:href="#CMMI12-58"/>
       <use transform="translate(72.787654 0)scale(0.996264)" xlink:href="#CMR17-56"/>
      </g>
     </g>
    </g>
    <g id="ytick_6">
     <g id="line2d_12">
      <g>
       <use style="stroke:#000000;stroke-width:0.8;" x="54" xlink:href="#mdb52d29bb7" y="65.76316"/>
      </g>
     </g>
     <g id="text_13">
      <!-- $1.0$ -->
      <g transform="translate(34.269921 69.193898)scale(0.1 -0.1)">
       <use transform="scale(0.996264)" xlink:href="#CMR17-49"/>
       <use transform="translate(45.690477 0)scale(0.996264)" xlink:href="#CMMI12-58"/>
       <use transform="translate(72.787654 0)scale(0.996264)" xlink:href="#CMR17-48"/>
      </g>
     </g>
    </g>
    <g id="text_14">
     <!-- c -->
     <defs>
      <path d="M 34.703125 32.46875 
C 34.203125 32.5625 33.703125 32.671875 33.203125 32.671875 
C 31.59375 32.671875 30.40625 31.25 30.40625 29.734375 
C 30.40625 28.21875 31.59375 26.703125 33.296875 26.703125 
C 34.703125 26.703125 36.09375 27.703125 36.296875 29.234375 
L 36.296875 29.828125 
C 36.296875 36.8125 30.703125 44 22.5 44 
C 11.203125 44 4.203125 32.15625 4.203125 21.4375 
C 4.203125 10.828125 10.59375 0 21.296875 -1 
L 22.296875 -1 
C 29.40625 -1 35 3.546875 37 10.3125 
C 37.09375 10.71875 37.203125 11.125 37.203125 11.53125 
C 37.203125 11.828125 37 11.9375 36.796875 11.9375 
C 35.703125 11.9375 35.5 10.015625 35.09375 9 
C 33.296875 3.84375 28.5 0.3125 23.40625 0.3125 
C 13.90625 0.3125 9.296875 11.625 9.296875 19.921875 
C 9.296875 28.421875 11.09375 42.671875 22.703125 42.671875 
C 28.296875 42.671875 33.40625 38.03125 34.703125 32.46875 
z
" id="Computer_Modern_Roman-99"/>
     </defs>
     <g transform="translate(28.333214 145.49338)rotate(-90)scale(0.1 -0.1)">
      <use transform="scale(0.356961)" xlink:href="#Computer_Modern_Roman-99"/>
     </g>
    </g>
   </g>
   <g id="line2d_13">
    <path clip-path="url(#p3ea9cbb773)" d="M 69.218182 242.116364 
L 72.292562 127.698474 
L 75.366942 104.925631 
L 78.441322 90.72299 
L 81.515702 80.563187 
L 84.590083 72.83349 
L 87.664463 66.751898 
L 90.738843 61.873377 
L 93.813223 57.917925 
L 96.887603 54.69672 
L 99.961983 52.075765 
L 103.036364 49.956172 
L 106.110744 48.262661 
L 109.185124 46.936459 
L 112.259504 45.93071 
L 115.333884 45.207395 
L 118.408264 44.735191 
L 121.482645 44.487961 
L 124.557025 44.443636 
L 127.631405 44.583403 
L 130.705785 44.891075 
L 133.780165 45.352615 
L 136.854545 45.955763 
L 139.928926 46.689741 
L 143.003306 47.545019 
L 146.077686 48.513124 
L 149.152066 49.586487 
L 152.226446 50.758312 
L 155.300826 52.022478 
L 158.375207 53.373446 
L 161.449587 54.806186 
L 164.523967 56.316116 
L 167.598347 57.899049 
L 170.672727 59.551147 
L 173.747107 61.268885 
L 176.821488 63.049013 
L 179.895868 64.888529 
L 182.970248 66.784655 
L 186.044628 68.734815 
L 189.119008 70.736613 
L 192.193388 72.787817 
L 195.267769 74.886346 
L 198.342149 77.030253 
L 201.416529 79.217716 
L 204.490909 81.447028 
L 207.565289 83.716584 
L 210.639669 86.024875 
L 213.71405 88.370479 
L 216.78843 90.752059 
L 219.86281 93.168347 
L 222.93719 95.618149 
L 226.01157 98.100333 
L 229.08595 100.613826 
L 232.160331 103.157612 
L 235.234711 105.730726 
L 238.309091 108.33225 
L 241.383471 110.961311 
L 244.457851 113.617078 
L 247.532231 116.29876 
L 250.606612 119.005602 
L 253.680992 121.736883 
L 256.755372 124.491914 
L 259.829752 127.270038 
L 262.904132 130.070624 
L 265.978512 132.89307 
L 269.052893 135.736798 
L 272.127273 138.601255 
L 275.201653 141.48591 
L 278.276033 144.390252 
L 281.350413 147.313792 
L 284.424793 150.256059 
L 287.499174 153.216601 
L 290.573554 156.194983 
L 293.647934 159.190784 
L 296.722314 162.203602 
L 299.796694 165.233047 
L 302.871074 168.278744 
L 305.945455 171.340331 
L 309.019835 174.417459 
L 312.094215 177.509791 
L 315.168595 180.617001 
L 318.242975 183.738774 
L 321.317355 186.874806 
L 324.391736 190.024802 
L 327.466116 193.188478 
L 330.540496 196.365558 
L 333.614876 199.555775 
L 336.689256 202.75887 
L 339.763636 205.974593 
L 342.838017 209.2027 
L 345.912397 212.442957 
L 348.986777 215.695134 
L 352.061157 218.959009 
L 355.135537 222.234368 
L 358.209917 225.521001 
L 361.284298 228.818705 
L 364.358678 232.127282 
L 367.433058 235.446541 
L 370.507438 238.776296 
L 373.581818 242.116364 
" style="fill:none;stroke:#ff0000;stroke-linecap:square;stroke-width:1.5;"/>
   </g>
   <g id="line2d_14">
    <path clip-path="url(#p3ea9cbb773)" d="M 106.685008 252 
L 106.685008 34.56 
" style="fill:none;stroke:#ff0000;stroke-dasharray:5.55,2.4;stroke-dashoffset:0;stroke-width:1.5;"/>
   </g>
   <g id="line2d_15">
    <path clip-path="url(#p3ea9cbb773)" d="M 69.218182 242.116364 
L 70.447143 155.214697 
L 71.676104 137.918469 
L 72.905065 127.131404 
L 74.134026 119.414919 
L 75.362987 113.544128 
L 76.591948 108.925091 
L 77.82091 105.2198 
L 79.049871 102.21559 
L 80.278832 99.769049 
L 81.507793 97.778405 
L 82.736754 96.16855 
L 83.965715 94.882309 
L 85.194676 93.875044 
L 86.423637 93.111167 
L 87.652598 92.5618 
L 88.88156 92.203157 
L 90.110521 92.015382 
L 91.339482 91.981717 
L 92.568443 92.087872 
L 93.797404 92.321552 
L 95.026365 92.672097 
L 96.255326 93.130194 
L 97.484287 93.687659 
L 98.713248 94.337252 
L 99.94221 95.072539 
L 101.171171 95.88777 
L 102.400132 96.777784 
L 103.629093 97.737933 
L 104.858054 98.764008 
L 106.087015 99.852189 
L 107.315976 100.998998 
L 108.544937 102.201253 
L 109.773898 103.456041 
L 111.00286 104.760682 
L 112.231821 106.112709 
L 113.460782 107.509842 
L 114.689743 108.949971 
L 115.918704 110.431139 
L 117.147665 111.951527 
L 118.376626 113.50944 
L 119.605587 115.103295 
L 120.834548 116.731617 
L 122.06351 118.39302 
L 123.292471 120.086207 
L 124.521432 121.80996 
L 125.750393 123.563133 
L 126.979354 125.344646 
L 128.208315 127.153482 
L 129.437276 128.98868 
L 130.666237 130.849332 
L 131.895198 132.734578 
L 133.124159 134.643605 
L 134.353121 136.575639 
L 135.582082 138.529947 
L 136.811043 140.505833 
L 138.040004 142.502634 
L 139.268965 144.51972 
L 140.497926 146.556487 
L 141.726887 148.612364 
L 142.955848 150.686802 
L 144.184809 152.779279 
L 145.413771 154.889295 
L 146.642732 157.016372 
L 147.871693 159.160051 
L 149.100654 161.319895 
L 150.329615 163.495482 
L 151.558576 165.686409 
L 152.787537 167.892289 
L 154.016498 170.112751 
L 155.245459 172.347435 
L 156.474421 174.596 
L 157.703382 176.858114 
L 158.932343 179.133459 
L 160.161304 181.421727 
L 161.390265 183.722625 
L 162.619226 186.035866 
L 163.848187 188.361175 
L 165.077148 190.698289 
L 166.306109 193.046949 
L 167.535071 195.40691 
L 168.764032 197.777931 
L 169.992993 200.159783 
L 171.221954 202.55224 
L 172.450915 204.955087 
L 173.679876 207.368115 
L 174.908837 209.791121 
L 176.137798 212.223907 
L 177.366759 214.666285 
L 178.595721 217.118068 
L 179.824682 219.579079 
L 181.053643 222.049144 
L 182.282604 224.528094 
L 183.511565 227.015766 
L 184.740526 229.512 
L 185.969487 232.016643 
L 187.198448 234.529545 
L 188.427409 237.050559 
L 189.65637 239.579545 
L 190.885332 242.116364 
" style="fill:none;stroke:#0000ff;stroke-linecap:square;stroke-width:1.5;"/>
   </g>
   <g id="line2d_16">
    <path clip-path="url(#p3ea9cbb773)" d="M 80.044427 252 
L 80.044427 34.56 
" style="fill:none;stroke:#0000ff;stroke-dasharray:5.55,2.4;stroke-dashoffset:0;stroke-width:1.5;"/>
   </g>
   <g id="patch_3">
    <path d="M 54 252 
L 54 34.56 
" style="fill:none;stroke:#000000;stroke-linecap:square;stroke-linejoin:miter;stroke-width:0.8;"/>
   </g>
   <g id="patch_4">
    <path d="M 388.8 252 
L 388.8 34.56 
" style="fill:none;stroke:#000000;stroke-linecap:square;stroke-linejoin:miter;stroke-width:0.8;"/>
   </g>
   <g id="patch_5">
    <path d="M 54 252 
L 388.8 252 
" style="fill:none;stroke:#000000;stroke-linecap:square;stroke-linejoin:miter;stroke-width:0.8;"/>
   </g>
   <g id="patch_6">
    <path d="M 54 34.56 
L 388.8 34.56 
" style="fill:none;stroke:#000000;stroke-linecap:square;stroke-linejoin:miter;stroke-width:0.8;"/>
   </g>
   <g id="patch_7">
    <path d="M 240.158413 74.161578 
Q 240.158413 88.525401 240.158413 102.889225 
L 242.633413 102.889225 
Q 241.383413 106.389139 240.133413 109.889054 
Q 238.883413 106.389139 237.633413 102.889225 
L 240.108413 102.889225 
Q 240.108413 88.525401 240.108413 74.161578 
L 240.158413 74.161578 
z
" style="stroke:#000000;stroke-linecap:round;"/>
   </g>
   <g id="text_15">
    <!-- $\dot{k}=0$, $\phi$ low -->
    <defs>
     <path d="M 16.5 61.890625 
C 16.5 64.296875 14.59375 66 12.5 66 
C 10.09375 66 8.40625 64.09375 8.40625 61.890625 
C 8.40625 59.484375 10.296875 57.796875 12.40625 57.796875 
C 14.796875 57.796875 16.5 59.6875 16.5 61.890625 
z
" id="CMR17-95"/>
     <path d="M 28.09375 66.484375 
C 28.203125 66.890625 28.40625 67.484375 28.40625 67.984375 
C 28.40625 69 27.40625 69 27.203125 69 
C 27.09375 69 23.5 68.6875 21.703125 68.484375 
C 20 68.390625 18.5 68.1875 16.703125 68.09375 
C 14.296875 67.890625 13.59375 67.796875 13.59375 65.984375 
C 13.59375 64.984375 14.59375 64.984375 15.59375 64.984375 
C 20.703125 64.984375 20.703125 64.109375 20.703125 63.125 
C 20.703125 62.71875 20.703125 62.53125 20.203125 60.75 
L 5.90625 3.90625 
C 5.5 2.390625 5.5 2.203125 5.5 1.59375 
C 5.5 -0.609375 7.203125 -1 8.203125 -1 
C 11 -1 11.59375 1.1875 12.40625 4.296875 
L 17.09375 23.0625 
C 24.296875 22.265625 28.59375 19.25 28.59375 14.4375 
C 28.59375 13.828125 28.59375 13.4375 28.296875 11.921875 
C 27.90625 10.421875 27.90625 9.21875 27.90625 8.71875 
C 27.90625 2.890625 31.703125 -1 36.796875 -1 
C 41.40625 -1 43.796875 3.203125 44.59375 4.609375 
C 46.703125 8.3125 48 13.9375 48 14.328125 
C 48 14.828125 47.59375 15.234375 47 15.234375 
C 46.09375 15.234375 46 14.828125 45.59375 13.234375 
C 44.203125 8.015625 42.09375 1 37 1 
C 35 1 33.703125 2 33.703125 5.8125 
C 33.703125 7.71875 34.09375 9.921875 34.5 11.421875 
C 34.90625 13.234375 34.90625 13.328125 34.90625 14.53125 
C 34.90625 20.453125 29.59375 23.765625 20.40625 24.96875 
C 24 27.171875 27.59375 31.078125 29 32.59375 
C 34.703125 38.984375 38.59375 41.984375 43.203125 41.984375 
C 45.5 41.984375 46.09375 41.484375 46.796875 41 
C 43.09375 40.59375 41.703125 37.984375 41.703125 35.984375 
C 41.703125 33.59375 43.59375 32.796875 45 32.796875 
C 47.703125 32.796875 50.09375 35.09375 50.09375 38.296875 
C 50.09375 41.15625 47.796875 44 43.296875 44 
C 37.796875 44 33.296875 40.296875 26.203125 32.296875 
C 25.203125 31.078125 21.5 27.28125 17.796875 25.875 
z
" id="CMMI12-107"/>
     <path d="M 64.296875 32 
C 65.796875 32 67.296875 32 67.296875 33.6875 
C 67.296875 35.5 65.59375 35.5 63.90625 35.5 
L 8 35.5 
C 6.296875 35.5 4.59375 35.5 4.59375 33.6875 
C 4.59375 32 6.09375 32 7.59375 32 
z
M 63.90625 14.484375 
C 65.59375 14.484375 67.296875 14.484375 67.296875 16.296875 
C 67.296875 18 65.796875 18 64.296875 18 
L 7.59375 18 
C 6.09375 18 4.59375 18 4.59375 16.296875 
C 4.59375 14.484375 6.296875 14.484375 8 14.484375 
z
" id="CMR17-61"/>
     <path d="M 15.203125 1.953125 
C 15.5 1.140625 15.5 0.34375 15.5 -0.5625 
L 15.5 -1.875 
C 15.5 -7.515625 13.703125 -12.359375 10.40625 -17.1875 
C 10.203125 -17.5 9.703125 -17.90625 9.703125 -18.40625 
C 9.703125 -18.703125 9.90625 -19 10.203125 -19 
C 11.09375 -19 13.203125 -15.484375 14 -13.671875 
C 15.796875 -9.9375 16.703125 -5.8125 16.703125 -1.671875 
C 16.703125 1.140625 16.59375 7 12.5 7 
C 10.703125 7 9.203125 5.484375 9.203125 3.671875 
C 9.203125 1.75 10.90625 0.4375 12.5 0.4375 
C 13.5 0.4375 14.59375 0.9375 15.203125 1.953125 
z
" id="Computer_Modern_Roman-44"/>
     <path d="M 43 68.09375 
C 43 69 42.296875 69 42 69 
C 41.09375 69 41 68.796875 40.59375 67.09375 
L 35.203125 45.6875 
C 34.90625 44.390625 34.796875 44.296875 34.703125 44.1875 
C 34.59375 44 33.90625 43.890625 33.703125 43.890625 
C 17.296875 42.5 4.703125 29.109375 4.703125 16.734375 
C 4.703125 6.046875 13 -0.5 23.40625 -1.109375 
C 22.59375 -4.15625 21.90625 -7.296875 21.09375 -10.34375 
C 19.703125 -15.546875 18.90625 -18.8125 18.90625 -19.203125 
C 18.90625 -19.40625 18.90625 -20 19.90625 -20 
C 20.203125 -20 20.59375 -20 20.796875 -19.609375 
C 21 -19.40625 21.59375 -17.015625 22 -15.75 
L 25.703125 -1.109375 
C 42.796875 -0.203125 55.796875 13.671875 55.796875 26.140625 
C 55.796875 36.140625 48.203125 43.296875 37.09375 44 
z
M 36.5 42 
C 43.09375 41.59375 49.703125 37.9375 49.703125 28.21875 
C 49.703125 17.03125 41.796875 2.1875 26.203125 1 
z
M 23.90625 0.890625 
C 19 1.1875 10.796875 3.765625 10.796875 14.65625 
C 10.796875 27.140625 19.90625 41 34.296875 41.890625 
z
" id="CMMI12-30"/>
     <path d="M 4.796875 68.875 
L 4.796875 66.65625 
L 6 66.65625 
C 9.5 66.65625 10.59375 65.046875 10.59375 61.71875 
L 10.59375 5.828125 
C 10.59375 2.796875 9.296875 2.1875 4.796875 2.1875 
L 4.796875 0 
L 20.40625 0 
L 20.40625 2.1875 
L 18.796875 2.1875 
C 16.59375 2.1875 14.59375 2.5 14.59375 5.71875 
L 14.59375 70 
z
" id="Computer_Modern_Roman-108"/>
     <path d="M 21.09375 44 
C 9.59375 42.578125 3.703125 31.75 3.703125 21.234375 
C 3.703125 10.515625 10.703125 -1 22.5 -1 
L 23.5 -1 
C 35 0.40625 41 11.125 41 21.34375 
C 41 31.578125 34.09375 44 22.5 44 
C 22 44.09375 21.59375 44 21.09375 44 
z
M 8.796875 19.625 
L 8.796875 21.234375 
C 8.796875 28.828125 9.703125 37.3125 17.40625 41.5625 
C 18.703125 42.171875 20.203125 42.671875 21.703125 42.78125 
L 22.40625 42.78125 
C 32.09375 42.78125 35.90625 31.34375 35.90625 23.15625 
C 35.90625 15.171875 35.09375 3.75 25.09375 0.71875 
C 24.203125 0.515625 23.296875 0.3125 22.40625 0.3125 
C 15 0.3125 10.203125 7.796875 9.296875 14.96875 
C 9 16.484375 9 18.109375 8.796875 19.625 
z
" id="Computer_Modern_Roman-111"/>
     <path d="M 1.40625 43 
L 1.40625 40.796875 
L 2.203125 40.796875 
C 6.203125 40.796875 6.703125 38.96875 8.796875 32.515625 
L 19 1.421875 
C 19.296875 0.609375 19.5 -1 20.59375 -1 
L 20.703125 -1 
C 21.59375 -0.8125 21.90625 1.015625 22.203125 1.8125 
L 28 19.484375 
C 28.90625 22.3125 29.796875 25.140625 30.796875 27.96875 
C 31.296875 29.578125 32 31.203125 32.296875 32.8125 
L 32.40625 32.8125 
C 32.703125 31.203125 33.40625 29.578125 33.90625 27.96875 
C 34.90625 25.140625 35.796875 22.3125 36.703125 19.484375 
L 42.5 1.8125 
C 42.796875 1.015625 43.09375 -0.8125 44 -1 
L 44.09375 -1 
C 45.203125 -1 45.40625 0.609375 45.703125 1.421875 
L 48.40625 9.59375 
C 51 17.5625 53.59375 25.453125 56.203125 33.421875 
C 57.203125 36.65625 59 40.796875 63.296875 40.796875 
L 63.296875 43 
L 51.5 43 
L 51.5 40.796875 
C 54 40.796875 55.5 38.46875 55.5 36.65625 
C 55.5 35.140625 54.90625 33.625 54.40625 32.203125 
C 51.40625 23.21875 48.5 14.140625 45.5 5.15625 
C 44.296875 7.984375 43.5 11 42.59375 13.9375 
C 40.296875 20.90625 37.90625 27.96875 35.59375 35.03125 
C 35.296875 36.046875 34.703125 37.265625 34.703125 38.375 
C 34.703125 40.484375 37.296875 40.796875 38.90625 40.796875 
L 38.90625 43 
L 25 43 
L 25 40.796875 
L 25.703125 40.796875 
C 28.5 40.796875 30 40.1875 31 36.75 
C 31.203125 36.25 31.5 35.546875 31.5 34.9375 
L 31.5 34.734375 
C 31.40625 33.71875 31 32.8125 30.703125 31.90625 
L 28.796875 26.359375 
C 26.40625 19.484375 24 12.421875 22 5.453125 
L 21.90625 5.453125 
C 21.703125 6.5625 21.203125 7.671875 20.90625 8.78125 
L 19 14.546875 
C 17.09375 20.296875 15.203125 25.953125 13.296875 31.703125 
L 11.90625 36.140625 
C 11.59375 36.859375 11.296875 37.65625 11.296875 38.375 
L 11.296875 38.671875 
C 11.59375 40.484375 14 40.796875 15.5 40.796875 
L 15.5 43 
z
" id="Computer_Modern_Roman-119"/>
    </defs>
    <g transform="translate(240.133413 70.220861)scale(0.1 -0.1)">
     <use transform="translate(14.604079 26.296621)scale(0.996264)" xlink:href="#CMR17-95"/>
     <use transform="scale(0.996264)" xlink:href="#CMMI12-107"/>
     <use transform="translate(81.753209 0)scale(0.996264)" xlink:href="#CMR17-61"/>
     <use transform="translate(181.142007 0)scale(0.996264)" xlink:href="#CMR17-48"/>
     <use transform="translate(226.832484 0)scale(0.356961)" xlink:href="#Computer_Modern_Roman-44"/>
     <use transform="translate(246.337115 0)scale(0.996264)" xlink:href="#CMMI12-30"/>
     <use transform="translate(314.712194 0)scale(0.356961)" xlink:href="#Computer_Modern_Roman-108"/>
     <use transform="translate(323.575927 0)scale(0.356961)" xlink:href="#Computer_Modern_Roman-111"/>
     <use transform="translate(338.65979 0)scale(0.356961)" xlink:href="#Computer_Modern_Roman-119"/>
    </g>
   </g>
   <g id="patch_8">
    <path d="M 127.371136 179.198224 
Q 120.513354 178.612758 113.655571 178.027291 
L 113.44504 180.493321 
Q 110.065024 178.950213 106.685008 177.407106 
Q 110.277682 176.459274 113.870355 175.511443 
L 113.659824 177.977473 
Q 120.517607 178.562939 127.375389 179.148406 
L 127.371136 179.198224 
z
" style="stroke:#000000;stroke-linecap:round;"/>
   </g>
   <g id="text_16">
    <!-- $\dot{c} = 0$, $\phi$ low -->
    <defs>
     <path d="M 39.09375 38 
C 37.203125 38 36.296875 38 34.90625 36.796875 
C 34.296875 36.296875 33.203125 34.796875 33.203125 33.1875 
C 33.203125 31.1875 34.703125 29.984375 36.59375 29.984375 
C 39 29.984375 41.703125 31.984375 41.703125 35.984375 
C 41.703125 40.484375 37.09375 44 30.203125 44 
C 17.09375 44 4 30.1875 4 15.796875 
C 4 6.96875 9.40625 -1 19.59375 -1 
C 33.203125 -1 41.796875 9.71875 41.796875 11.03125 
C 41.796875 11.640625 41.203125 12.140625 40.796875 12.140625 
C 40.5 12.140625 40.40625 12.046875 39.5 11.125 
C 33.09375 2.515625 23.59375 1 19.796875 1 
C 12.90625 1 10.703125 7.078125 10.703125 12.140625 
C 10.703125 15.6875 12.40625 25.53125 16 32.390625 
C 18.59375 37.09375 24 41.984375 30.296875 41.984375 
C 31.59375 41.984375 37.09375 41.8125 39.09375 38 
z
" id="CMMI12-99"/>
    </defs>
    <g transform="translate(129.375888 177.407106)scale(0.1 -0.1)">
     <use transform="translate(13.975531 0.006461)scale(0.996264)" xlink:href="#CMR17-95"/>
     <use transform="scale(0.996264)" xlink:href="#CMMI12-99"/>
     <use transform="translate(69.657242 0)scale(0.996264)" xlink:href="#CMR17-61"/>
     <use transform="translate(169.04604 0)scale(0.996264)" xlink:href="#CMR17-48"/>
     <use transform="translate(214.736517 0)scale(0.356961)" xlink:href="#Computer_Modern_Roman-44"/>
     <use transform="translate(234.241148 0)scale(0.996264)" xlink:href="#CMMI12-30"/>
     <use transform="translate(302.616227 0)scale(0.356961)" xlink:href="#Computer_Modern_Roman-108"/>
     <use transform="translate(311.47996 0)scale(0.356961)" xlink:href="#Computer_Modern_Roman-111"/>
     <use transform="translate(326.563823 0)scale(0.356961)" xlink:href="#Computer_Modern_Roman-119"/>
    </g>
   </g>
   <g id="patch_9">
    <path d="M 135.489879 111.146999 
Q 135.489879 121.244107 135.489879 131.341215 
L 137.964879 131.341215 
Q 136.714879 134.841922 135.464879 138.342629 
Q 134.214879 134.841922 132.964879 131.341215 
L 135.439879 131.341215 
Q 135.439879 121.244107 135.439879 111.146999 
L 135.489879 111.146999 
z
" style="stroke:#000000;stroke-linecap:round;"/>
   </g>
   <g id="text_17">
    <!-- $\dot{k}=0$, $\phi$ high -->
    <defs>
     <path d="M 4.703125 68.875 
L 4.703125 66.65625 
L 5.90625 66.65625 
C 9.40625 66.65625 10.59375 65.140625 10.59375 61.71875 
L 10.59375 5.828125 
C 10.59375 2.796875 9.296875 2.1875 4.703125 2.1875 
L 4.703125 0 
L 20.59375 0 
L 20.59375 2.1875 
L 19.203125 2.1875 
C 16.90625 2.1875 14.703125 2.5 14.703125 5.625 
L 14.703125 27.71875 
C 15.296875 34.578125 18.796875 42.75 26.703125 42.75 
C 33 42.75 35.40625 37.703125 35.40625 30.4375 
L 35.40625 5.625 
C 35.40625 2.390625 33 2.1875 29.5 2.1875 
L 29.5 0 
L 45.40625 0 
L 45.40625 2.1875 
L 43.796875 2.1875 
C 41.5 2.1875 39.5 2.5 39.5 6.03125 
L 39.5 29.328125 
C 39.5 36.09375 38.203125 43.96875 27.5 43.96875 
C 22.296875 43.96875 18.40625 41.03125 16.09375 36.796875 
C 15.5 35.796875 14.90625 34.578125 14.703125 33.46875 
L 14.59375 70 
z
" id="Computer_Modern_Roman-104"/>
     <path d="M 5.09375 42.6875 
L 5.09375 40.46875 
L 5.59375 40.46875 
C 8.796875 40.46875 10.59375 39.96875 10.59375 35.15625 
L 10.59375 5.609375 
C 10.59375 2.390625 8.296875 2.1875 4.796875 2.1875 
L 4.796875 0 
L 19.90625 0 
L 19.90625 2.1875 
L 18.59375 2.1875 
C 16.5 2.1875 14.59375 2.390625 14.59375 5.8125 
L 14.59375 43.796875 
z
M 10.90625 65 
C 9.296875 65 8.296875 63.1875 8.296875 61.875 
C 8.296875 60.375 9.5 58.5625 11.40625 58.5625 
C 13.40625 58.5625 14.59375 60.265625 14.59375 61.78125 
C 14.59375 63.1875 13.40625 65 11.5 65 
C 11.296875 65.09375 11.09375 65 10.90625 65 
z
" id="Computer_Modern_Roman-105"/>
     <path d="M 10.296875 18.921875 
L 10.296875 18.828125 
C 8.296875 16.828125 7.40625 13.546875 7.40625 10.765625 
C 7.40625 7.1875 8.90625 4.890625 11.703125 2.6875 
C 7 1.890625 2.40625 -2.6875 2.40625 -7.765625 
C 2.40625 -16.21875 14 -20 22.203125 -20 
C 30.203125 -20 42.203125 -17.015625 42.203125 -7.171875 
C 42.203125 -1.6875 38.5 2.5 33.40625 4.09375 
C 29.796875 5.296875 25.90625 5.390625 22.09375 5.390625 
L 19.09375 5.390625 
C 18.203125 5.390625 17.296875 5.296875 16.40625 5.296875 
C 11.59375 5.296875 9.09375 8.28125 9.09375 12.359375 
C 9.09375 14.140625 10.09375 17.734375 11.09375 17.734375 
L 11.203125 17.734375 
C 11.796875 17.734375 13.59375 16.234375 14.796875 15.734375 
C 16.40625 15.046875 18.09375 14.75 19.90625 14.75 
C 28.203125 14.75 33.5 21.90625 33.5 29.171875 
C 33.5 32.453125 32.296875 36.4375 29.90625 38.8125 
L 29.90625 38.921875 
C 32.59375 41.015625 35.40625 42.796875 38.90625 42.796875 
C 39.59375 42.796875 40.296875 42.703125 41 42.5 
C 40.40625 42.109375 39.90625 41.5 39.90625 40.703125 
C 39.90625 39.71875 40.796875 39.015625 41.703125 39.015625 
C 42.90625 39.015625 43.5 39.8125 43.5 40.703125 
C 43.5 43.09375 41.09375 44 39.09375 44 
C 35.796875 44 32.59375 42.59375 30 40.515625 
C 29.796875 40.3125 29.40625 40.015625 29.09375 40.015625 
C 28.5 40.015625 26.5 41.703125 25.203125 42.40625 
C 23.5 43.09375 21.703125 43.5 19.90625 43.5 
C 11.59375 43.5 6.203125 36.234375 6.203125 29.078125 
C 6.203125 25.6875 7.5 21.203125 10.296875 18.921875 
z
M 5.59375 -8.5625 
L 5.59375 -7.765625 
C 5.59375 -4.078125 7.90625 -0.390625 11.203125 1.09375 
C 12.90625 1.890625 14.703125 2 16.59375 2 
L 24.90625 2 
C 30.59375 2 39.09375 0 39.09375 -7.765625 
C 39.09375 -15.53125 28.90625 -18.8125 22.40625 -18.8125 
C 15.703125 -18.8125 6.59375 -15.734375 5.59375 -8.5625 
z
M 11.09375 27.078125 
L 11.09375 28.375 
C 11.09375 33.84375 12.296875 42.203125 19.796875 42.203125 
C 26.296875 42.203125 28.59375 35.640625 28.59375 29.46875 
C 28.59375 25.1875 28.203125 19.625 23.796875 17.125 
C 22.59375 16.390625 21.203125 16 19.90625 16 
C 14 16 11.703125 21.75 11.09375 27.109375 
z
" id="Computer_Modern_Roman-103"/>
    </defs>
    <g transform="translate(135.464879 107.210508)scale(0.1 -0.1)">
     <use transform="translate(14.604079 26.296621)scale(0.996264)" xlink:href="#CMR17-95"/>
     <use transform="scale(0.996264)" xlink:href="#CMMI12-107"/>
     <use transform="translate(81.753209 0)scale(0.996264)" xlink:href="#CMR17-61"/>
     <use transform="translate(181.142007 0)scale(0.996264)" xlink:href="#CMR17-48"/>
     <use transform="translate(226.832484 0)scale(0.356961)" xlink:href="#Computer_Modern_Roman-44"/>
     <use transform="translate(246.337115 0)scale(0.996264)" xlink:href="#CMMI12-30"/>
     <use transform="translate(314.712194 0)scale(0.356961)" xlink:href="#Computer_Modern_Roman-104"/>
     <use transform="translate(332.46181 0)scale(0.356961)" xlink:href="#Computer_Modern_Roman-105"/>
     <use transform="translate(341.325544 0)scale(0.356961)" xlink:href="#Computer_Modern_Roman-103"/>
     <use transform="translate(357.297996 0)scale(0.356961)" xlink:href="#Computer_Modern_Roman-104"/>
    </g>
   </g>
   <g id="patch_10">
    <path d="M 100.730555 196.601302 
Q 93.872772 196.015836 87.014989 195.430369 
L 86.804458 197.896399 
Q 83.424443 196.353291 80.044427 194.810184 
Q 83.6371 193.862352 87.229774 192.914521 
L 87.019243 195.38055 
Q 93.877025 195.966017 100.734808 196.551483 
L 100.730555 196.601302 
z
" style="stroke:#000000;stroke-linecap:round;"/>
   </g>
   <g id="text_18">
    <!-- $\dot{c} = 0$, $\phi$ high -->
    <g transform="translate(102.735306 194.810184)scale(0.1 -0.1)">
     <use transform="translate(13.975531 0.006461)scale(0.996264)" xlink:href="#CMR17-95"/>
     <use transform="scale(0.996264)" xlink:href="#CMMI12-99"/>
     <use transform="translate(69.657242 0)scale(0.996264)" xlink:href="#CMR17-61"/>
     <use transform="translate(169.04604 0)scale(0.996264)" xlink:href="#CMR17-48"/>
     <use transform="translate(214.736517 0)scale(0.356961)" xlink:href="#Computer_Modern_Roman-44"/>
     <use transform="translate(234.241148 0)scale(0.996264)" xlink:href="#CMMI12-30"/>
     <use transform="translate(302.616227 0)scale(0.356961)" xlink:href="#Computer_Modern_Roman-104"/>
     <use transform="translate(320.365843 0)scale(0.356961)" xlink:href="#Computer_Modern_Roman-105"/>
     <use transform="translate(329.229577 0)scale(0.356961)" xlink:href="#Computer_Modern_Roman-103"/>
     <use transform="translate(345.202029 0)scale(0.356961)" xlink:href="#Computer_Modern_Roman-104"/>
    </g>
   </g>
   <g id="text_19">
    <!-- $\dot{c}/c = 0$ and $\dot{k} = 0$ Loci -->
    <defs>
     <path d="M 42.90625 71.296875 
C 42.90625 71.390625 43.5 72.890625 43.5 73.09375 
C 43.5 74.296875 42.5 75 41.703125 75 
C 41.203125 75 40.296875 75 39.5 72.796875 
L 6 -21.3125 
C 6 -21.40625 5.40625 -22.90625 5.40625 -23.109375 
C 5.40625 -24.3125 6.40625 -25 7.203125 -25 
C 7.796875 -25 8.703125 -24.90625 9.40625 -22.8125 
z
" id="CMMI12-61"/>
     <path d="M 9 32.15625 
C 10.296875 37.515625 13.796875 42.78125 19.90625 42.78125 
C 25.296875 42.78125 29.203125 37.625 30 32.65625 
C 30.203125 31.34375 30.203125 29.921875 30.203125 28.609375 
L 30.203125 24.671875 
C 20.59375 24.671875 7.40625 22.4375 5 10.296875 
C 4.90625 9.6875 4.90625 8.984375 4.90625 8.375 
C 4.90625 1.59375 12.5 -1 17.703125 -1 
C 22.59375 -1 29 2.203125 30.296875 7.765625 
L 30.40625 7.765625 
C 30.40625 3.515625 33.203125 -0.703125 37.40625 -0.703125 
C 42.90625 -0.703125 44.203125 5.234375 44.203125 9.59375 
L 44.203125 14.140625 
L 42.90625 14.140625 
L 42.90625 8.984375 
C 42.90625 5.75 42.203125 1.09375 38.59375 1.09375 
C 34.5 1.09375 34.296875 6.453125 34.296875 9.1875 
L 34.296875 28 
C 34.296875 30.53125 34.203125 33.171875 33.203125 35.59375 
C 31.09375 40.546875 25.59375 44 20.203125 44 
C 12.5 44 7.5 37.109375 7.5 29.625 
C 7.5 27.703125 8.90625 26.59375 10.5 26.59375 
C 12.09375 26.59375 13.40625 27.90625 13.40625 29.53125 
C 13.40625 31.046875 12.40625 32.453125 10.5 32.453125 
C 10 32.453125 9.5 32.359375 9 32.15625 
z
M 30.203125 23.546875 
L 30.203125 13.640625 
C 30.203125 6.953125 26.09375 0.6875 19.203125 0.1875 
L 18.59375 0.1875 
C 14 0.1875 9.796875 3.828125 9.796875 8.78125 
C 9.796875 19.3125 21.296875 23.546875 30.203125 23.546875 
z
" id="Computer_Modern_Roman-97"/>
     <path d="M 4.703125 42.875 
L 4.703125 40.65625 
L 5.703125 40.65625 
C 8.90625 40.65625 10.59375 39.953125 10.59375 35.515625 
L 10.59375 5.625 
C 10.59375 2.390625 8.203125 2.1875 4.703125 2.1875 
L 4.703125 0 
L 20.59375 0 
L 20.59375 2.1875 
L 19.203125 2.1875 
C 16.90625 2.1875 14.703125 2.5 14.703125 5.625 
L 14.703125 27.734375 
C 15.296875 34.609375 18.796875 42.78125 26.703125 42.78125 
C 33 42.78125 35.40625 37.734375 35.40625 30.46875 
L 35.40625 5.625 
C 35.40625 2.390625 33 2.1875 29.5 2.1875 
L 29.5 0 
L 45.40625 0 
L 45.40625 2.1875 
L 43.796875 2.1875 
C 41.5 2.1875 39.5 2.5 39.5 6.03125 
L 39.5 29.453125 
C 39.5 35.921875 38.296875 44 27.5 44 
C 22.09375 44 18.40625 41.0625 16 36.71875 
C 15.40625 35.609375 14.796875 34.40625 14.59375 33.1875 
L 14.5 44 
z
" id="Computer_Modern_Roman-110"/>
     <path d="M 29.40625 68.875 
L 29.40625 66.640625 
L 30.5 66.640625 
C 33.59375 66.640625 35.296875 65.734375 35.296875 61.875 
L 35.203125 36.015625 
C 33.296875 40.671875 27.59375 43.828125 22.796875 43.828125 
C 11.09375 43.828125 4.203125 31.859375 4.203125 21.203125 
C 4.203125 11.15625 10.203125 -0.296875 20.90625 -1 
L 21.796875 -1 
C 27.203125 -1 33.09375 2.34375 35.09375 7.3125 
L 35.203125 -1 
L 45.203125 -0.40625 
L 45.203125 1.828125 
L 44 1.828125 
C 40.703125 1.828125 39.296875 3.046875 39.296875 6.59375 
L 39.296875 70 
z
M 9.296875 18.96875 
L 9.296875 20.5 
C 9.296875 27.5 10.296875 35.8125 16.5 40.265625 
C 18.59375 41.796875 21 42.609375 23.40625 42.609375 
C 29.09375 42.609375 35.296875 37.125 35.296875 31.25 
C 35.296875 30.125 35.203125 28.90625 35.203125 27.796875 
L 35.203125 11.46875 
C 35.203125 5.984375 28.296875 0.203125 22.5 0.203125 
C 14.796875 0.203125 10.59375 8.125 9.703125 14.8125 
C 9.5 16.234375 9.5 17.546875 9.296875 18.96875 
z
" id="Computer_Modern_Roman-100"/>
     <path d="M 7.296875 68 
L 7.296875 65.796875 
L 9 65.796875 
C 11.59375 65.796875 13.703125 65.5 13.703125 61.609375 
L 13.703125 6.375 
C 13.703125 2.484375 12 2.1875 7.296875 2.1875 
L 7.296875 0 
L 50.09375 0 
L 52.203125 24.78125 
L 50.90625 24.78125 
C 50.296875 17.125 49.90625 6.171875 38.59375 2.984375 
C 35.59375 2.1875 32.59375 2.1875 29.5 2.1875 
L 21.5 2.1875 
C 19.40625 2.1875 18.5 3.1875 18.5 5.375 
C 18.5 6.078125 18.59375 6.671875 18.59375 7.265625 
L 18.59375 59.328125 
C 18.59375 60.015625 18.5 60.8125 18.5 61.609375 
C 18.5 65.09375 20.40625 65.796875 24.40625 65.796875 
L 26.59375 65.796875 
L 26.59375 68 
z
" id="Computer_Modern_Roman-76"/>
    </defs>
    <g transform="translate(162.341509 28.56)scale(0.12 -0.12)">
     <use transform="translate(13.975531 0.006461)scale(0.996264)" xlink:href="#CMR17-95"/>
     <use transform="scale(0.996264)" xlink:href="#CMMI12-99"/>
     <use transform="translate(41.983234 0)scale(0.996264)" xlink:href="#CMMI12-61"/>
     <use transform="translate(90.758152 0)scale(0.996264)" xlink:href="#CMMI12-99"/>
     <use transform="translate(160.415395 0)scale(0.996264)" xlink:href="#CMR17-61"/>
     <use transform="translate(259.804192 0)scale(0.996264)" xlink:href="#CMR17-48"/>
     <use transform="translate(316.135567 0)scale(0.356961)" xlink:href="#Computer_Modern_Roman-97"/>
     <use transform="translate(332.108019 0)scale(0.356961)" xlink:href="#Computer_Modern_Roman-110"/>
     <use transform="translate(349.857635 0)scale(0.356961)" xlink:href="#Computer_Modern_Roman-100"/>
     <use transform="translate(392.852228 26.296621)scale(0.996264)" xlink:href="#CMR17-95"/>
     <use transform="translate(378.24815 0)scale(0.996264)" xlink:href="#CMMI12-107"/>
     <use transform="translate(460.001359 0)scale(0.996264)" xlink:href="#CMR17-61"/>
     <use transform="translate(559.390156 0)scale(0.996264)" xlink:href="#CMR17-48"/>
     <use transform="translate(615.721531 0)scale(0.356961)" xlink:href="#Computer_Modern_Roman-76"/>
     <use transform="translate(635.682308 0)scale(0.356961)" xlink:href="#Computer_Modern_Roman-111"/>
     <use transform="translate(652.543334 0)scale(0.356961)" xlink:href="#Computer_Modern_Roman-99"/>
     <use transform="translate(666.738607 0)scale(0.356961)" xlink:href="#Computer_Modern_Roman-105"/>
    </g>
   </g>
  </g>
 </g>
 <defs>
  <clipPath id="p3ea9cbb773">
   <rect height="217.44" width="334.8" x="54" y="34.56"/>
  </clipPath>
 </defs>
</svg>
